<svg width="404" height="405" viewBox="0 0 404 405" fill="none" xmlns="http://www.w3.org/2000/svg">
<path d="M50.4157 164.074C37.7344 216.476 135.175 161.786 135.175 161.786C135.175 161.786 133.692 50.0564 94.6929 87.2838C55.6941 124.511 167.234 131.183 167.234 131.183C167.234 131.183 226.392 36.3884 173.457 46.6216C120.523 56.8549 210.749 122.771 210.749 122.771C210.749 122.771 311.766 75.0075 261.702 54.9977C211.638 34.9879 251.904 139.22 251.904 139.22C251.904 139.22 362.708 153.653 331.409 109.753C300.111 65.8528 277.633 175.308 277.633 175.308C277.633 175.308 363.044 247.354 360.448 193.502C357.852 139.65 279.767 219.577 279.767 219.577C279.767 219.577 312.668 326.363 339.599 279.656C366.53 232.95 257.628 257.972 257.628 257.972C257.628 257.972 227.574 365.594 275.481 340.862C323.388 316.13 218.246 278.303 218.246 278.303C218.246 278.303 134.778 352.592 188.451 357.686C242.124 362.781 174.124 274.115 174.124 274.115C174.124 274.115 63.7424 291.484 106.141 324.788C148.539 358.092 139.27 246.738 139.27 246.738C139.27 246.738 37.0209 201.673 54.6834 252.612C72.3458 303.552 124.75 204.863 124.75 204.863C124.75 204.863 63.097 111.672 50.4157 164.074Z" stroke="#FAB427" stroke-width="3.93765"/>
</svg>
